<svg width="16" height="16" viewBox="0 0 16 16" fill="currentColor" xmlns="http://www.w3.org/2000/svg">
<g clip-path="url(#clip0_588_4374)">
<path d="M14.6344 6.64687H9.5375V1.36562C9.5375 0.609375 8.925 -0.00312424 8.16875 -0.00312424C7.4125 -0.00312424 6.8 0.609375 6.8 1.36562V6.64687H1.3625C0.6125 6.64687 0 7.25937 0 8.01562C0 8.77187 0.6125 9.38437 1.36875 9.38437H6.80625V14.6344C6.80625 15.3906 7.41875 16.0031 8.175 16.0031C8.93125 16.0031 9.54375 15.3906 9.54375 14.6344V9.38437H14.6406C15.3969 9.38437 16.0094 8.77187 16.0094 8.01562C16 7.25937 15.3906 6.64687 14.6344 6.64687Z"/>
</g>
<defs>
<clipPath id="clip0_588_4374">
<rect width="16" height="16" fill="white"/>
</clipPath>
</defs>
</svg>
